<?xml version="1.0" encoding="utf-8"?>
<!-- Generator: Adobe Illustrator 19.0.0, SVG Export Plug-In . SVG Version: 6.00 Build 0)  -->
<svg version="1.1" id="Layer_1" xmlns="http://www.w3.org/2000/svg" xmlns:xlink="http://www.w3.org/1999/xlink" x="0px" y="0px"
	 viewBox="0 0 339 134.5" style="enable-background:new 0 0 339 134.5;" xml:space="preserve">
<style type="text/css">
	.st0{fill:#818385;}
	.st1{fill:#8B5E3C;}
</style>
<g id="XMLID_260_">
	<g id="XMLID_1_">
		<path id="XMLID_2_" class="st0" d="M94.8,119V96.1h5.9c3.9,0,6.9,0.9,8.9,2.8c2,1.9,3,4.6,3,8.3c0,2.3-0.5,4.4-1.5,6.2
			c-1,1.8-2.4,3.2-4.3,4.1c-1.9,1-4,1.4-6.5,1.4H94.8z M96.5,97.6v19.8h3.7c3.5,0,6.1-0.9,8-2.6c1.9-1.8,2.8-4.3,2.8-7.6
			c0-6.4-3.5-9.7-10.4-9.7H96.5z"/>
		<path id="XMLID_5_" class="st0" d="M120,110.9c0,2.2,0.5,3.9,1.6,5.2c1,1.2,2.5,1.9,4.4,1.9c1.9,0,3.7-0.7,5.5-2v1.6
			c-1.7,1.2-3.7,1.8-5.8,1.8c-2.2,0-4-0.8-5.3-2.3c-1.3-1.6-1.9-3.7-1.9-6.3c0-1.5,0.3-3,1-4.3c0.6-1.3,1.5-2.3,2.7-3.1
			c1.1-0.7,2.4-1.1,3.9-1.1c2,0,3.6,0.7,4.8,2.1c1.1,1.4,1.7,3.4,1.7,5.9v0.7H120z M130.7,109.5c-0.1-1.9-0.5-3.3-1.4-4.3
			c-0.9-1-2-1.5-3.5-1.5c-1.6,0-2.9,0.5-3.9,1.5c-1,1-1.6,2.5-1.9,4.3H130.7z"/>
		<path id="XMLID_8_" class="st0" d="M138.1,116.4c0.6,0.5,1.2,0.8,2,1.1c0.8,0.3,1.5,0.4,2.1,0.4c2.6,0,3.9-1,3.9-3.1
			c0-0.7-0.3-1.3-0.8-1.8s-1.5-1-2.9-1.6c-1.6-0.6-2.7-1.3-3.3-2.1c-0.7-0.7-1-1.6-1-2.7c0-1.3,0.5-2.4,1.6-3.2
			c1-0.8,2.4-1.2,3.9-1.2c1.4,0,2.6,0.3,3.7,0.9v1.7c-1.3-0.8-2.5-1.2-3.9-1.2c-1.1,0-1.9,0.3-2.6,0.8c-0.7,0.5-1,1.3-1,2.2
			c0,0.6,0.1,1.1,0.3,1.4s0.5,0.7,1,1s1.2,0.7,2.1,1.1c1.2,0.5,2.2,1,2.8,1.5c0.7,0.4,1.1,0.9,1.4,1.4c0.3,0.5,0.4,1.1,0.4,1.8
			c0,1.3-0.5,2.4-1.6,3.3s-2.4,1.2-4.1,1.2c-1.6,0-3-0.4-4.1-1.1V116.4z"/>
		<path id="XMLID_10_" class="st0" d="M155.3,98.5c-0.3,0-0.6-0.1-0.9-0.4c-0.3-0.2-0.4-0.5-0.4-0.9c0-0.3,0.1-0.6,0.4-0.8
			c0.3-0.2,0.5-0.3,0.9-0.3s0.6,0.1,0.9,0.3c0.3,0.2,0.4,0.5,0.4,0.9c0,0.4-0.1,0.7-0.4,0.9C155.9,98.4,155.6,98.5,155.3,98.5z
			 M154.5,119v-16.3h1.6V119H154.5z"/>
		<path id="XMLID_13_" class="st0" d="M177.3,117.7c0,3-0.7,5.3-2,6.7c-1.4,1.4-3.5,2.2-6.4,2.2c-1.6,0-3.3-0.4-5-1.2v-1.6
			c1.8,1,3.5,1.4,5.1,1.4c4.6,0,6.9-2.4,6.9-7.1V116h-0.1c-1.3,2.2-3.3,3.3-6,3.3c-1.4,0-2.6-0.3-3.7-1c-1.1-0.7-1.9-1.6-2.5-2.9
			c-0.6-1.2-0.9-2.7-0.9-4.4c0-1.7,0.3-3.3,1-4.6c0.6-1.4,1.5-2.4,2.7-3.1c1.2-0.7,2.5-1.1,4-1.1c2.4,0,4.2,1,5.3,3h0.1v-2.6h1.6
			V117.7z M175.8,108.9c0-1-0.2-1.9-0.7-2.7s-1.1-1.5-1.9-1.9c-0.8-0.5-1.7-0.7-2.8-0.7c-1.8,0-3.3,0.7-4.4,2
			c-1.1,1.3-1.7,3.1-1.7,5.3c0,2.1,0.5,3.8,1.5,5.1c1,1.3,2.4,1.9,4.1,1.9c1.7,0,3.1-0.6,4.2-1.7c1.1-1.1,1.6-2.5,1.6-4.2V108.9z"/>
		<path id="XMLID_16_" class="st0" d="M196.5,119v-9.5c0-3.9-1.4-5.8-4.3-5.8c-1.6,0-2.9,0.6-3.9,1.7c-1,1.1-1.6,2.5-1.6,4.3v9.4
			h-1.6v-16.3h1.6v2.9h0.1c1.2-2.2,3.1-3.3,5.7-3.3c1.8,0,3.2,0.6,4.1,1.8s1.4,2.8,1.4,5v9.9H196.5z"/>
		<path id="XMLID_18_" class="st0" d="M216.2,116.3c1.7,1.1,3.4,1.6,5.2,1.6c1.8,0,3.2-0.4,4.2-1.1c0.9-0.7,1.4-1.8,1.4-3.2
			c0-0.7-0.1-1.3-0.4-1.8c-0.3-0.5-0.7-1-1.2-1.4c-0.5-0.5-1.7-1.2-3.6-2.3c-1.7-1-2.9-1.8-3.5-2.3c-0.6-0.6-1.1-1.2-1.5-1.9
			s-0.5-1.5-0.5-2.3c0-1.1,0.3-2.1,0.9-3c0.6-0.9,1.4-1.6,2.5-2.1c1.1-0.5,2.3-0.7,3.7-0.7c1.5,0,2.9,0.2,4.2,0.7v1.7
			c-1.4-0.6-2.8-0.9-4.4-0.9c-1.6,0-2.8,0.4-3.8,1.1c-0.9,0.8-1.4,1.8-1.4,3c0,0.8,0.1,1.5,0.4,2c0.3,0.5,0.7,1,1.3,1.5
			c0.6,0.5,1.7,1.2,3.4,2.1c1.5,0.8,2.6,1.5,3.3,2.2s1.3,1.3,1.7,2c0.3,0.7,0.5,1.4,0.5,2.3c0,1.8-0.7,3.3-2,4.4
			c-1.3,1.1-3.1,1.6-5.3,1.6c-0.8,0-1.8-0.1-2.8-0.4c-1.1-0.3-1.9-0.5-2.4-0.8V116.3z"/>
		<path id="XMLID_20_" class="st0" d="M241.4,118.7c-0.8,0.4-1.5,0.5-2.2,0.5c-2.5,0-3.7-1.4-3.7-4.3V104h-3v-1.4h3v-4.2l1.5-0.5
			v4.7h4.4v1.4H237v10.7c0,1.1,0.2,1.9,0.5,2.4c0.4,0.5,1,0.8,1.9,0.8c0.6,0,1.3-0.2,2-0.6V118.7z"/>
		<path id="XMLID_22_" class="st0" d="M258.3,119V116h-0.1c-1.1,2.2-2.9,3.3-5.4,3.3c-4,0-5.9-2.4-5.9-7.3v-9.4h1.6v9.1
			c0,2.2,0.4,3.8,1.1,4.7s1.9,1.5,3.5,1.5c1.5,0,2.8-0.6,3.7-1.7c1-1.1,1.4-2.6,1.4-4.4v-9.3h1.6V119H258.3z"/>
		<path id="XMLID_24_" class="st0" d="M279.5,119V116h-0.1c-0.6,1.1-1.4,1.9-2.5,2.5c-1.1,0.6-2.3,0.9-3.5,0.9
			c-2.1,0-3.8-0.7-5.1-2.2s-1.9-3.5-1.9-6c0-1.7,0.3-3.2,1-4.6s1.6-2.4,2.7-3.1c1.2-0.7,2.5-1.1,4-1.1c2.5,0,4.3,1,5.3,3h0.1V94.8
			h1.6V119H279.5z M279.5,109.1c0-1.6-0.5-2.9-1.5-3.9s-2.3-1.5-3.9-1.5c-1.8,0-3.2,0.7-4.3,2c-1.1,1.3-1.7,3.1-1.7,5.3
			c0,2.2,0.5,3.9,1.5,5.1c1,1.3,2.3,1.9,4,1.9c1.8,0,3.3-0.5,4.3-1.7s1.6-2.5,1.6-4.3V109.1z"/>
		<path id="XMLID_27_" class="st0" d="M289.7,98.5c-0.3,0-0.6-0.1-0.9-0.4c-0.3-0.2-0.4-0.5-0.4-0.9c0-0.3,0.1-0.6,0.4-0.8
			c0.3-0.2,0.5-0.3,0.9-0.3s0.6,0.1,0.9,0.3c0.3,0.2,0.4,0.5,0.4,0.9c0,0.4-0.1,0.7-0.4,0.9C290.4,98.4,290.1,98.5,289.7,98.5z
			 M288.9,119v-16.3h1.6V119H288.9z"/>
		<path id="XMLID_30_" class="st0" d="M305.1,119.4c-1.6,0-3-0.4-4.2-1.1s-2.1-1.7-2.8-3s-1-2.7-1-4.4c0-1.7,0.3-3.3,1-4.6
			c0.7-1.3,1.6-2.3,2.8-3s2.7-1,4.3-1c2.4,0,4.3,0.8,5.7,2.3s2.1,3.6,2.1,6.3c0,1.7-0.3,3.2-1,4.5s-1.6,2.3-2.8,3
			C308,119,306.7,119.4,305.1,119.4z M305.2,103.6c-2,0-3.6,0.7-4.7,2c-1.1,1.3-1.7,3.1-1.7,5.3c0,2.1,0.6,3.8,1.7,5.1
			c1.1,1.3,2.7,1.9,4.6,1.9c2,0,3.5-0.6,4.6-1.9c1.1-1.3,1.6-3,1.6-5.3c0-2.3-0.5-4.1-1.6-5.3C308.7,104.3,307.2,103.6,305.2,103.6z
			"/>
	</g>
</g>
<g id="XMLID_241_">
	<path id="XMLID_258_" class="st1" d="M62.7,63.6l-4.3,18.3H5.6v-2c3.7-0.3,6.1-1,7.4-2c1.8-1.5,2.6-4.3,2.6-8.4V19.7
		c0-4.3-0.9-7.2-2.6-8.6c-1.2-0.9-3.6-1.6-7.4-1.9v-2h52.1l0.3,15.2h-2.1c-0.8-5.2-2.1-8.5-3.9-9.7c-1.8-1.4-5.5-2-11.3-2H26.1
		c-1.8,0-2.8,0.1-3,0.2c-0.7,0.3-1,1.6-1,3.7v26.1h16.6c4.3,0,7.2-0.7,8.6-2.2c1.1-1.2,2-4,2.6-8.2H52v25.3h-2.1
		c-0.6-4.6-1.6-7.5-2.8-8.7c-1.4-1.3-4.2-1.9-8.4-1.9H22v28.2c0,2.4,0.9,4,2.6,4.7c1.7,0.5,6.4,0.8,14.2,0.8c6.3,0,10.9-1,13.8-3
		c2.9-2,5.5-6,7.9-11.8H62.7z"/>
	<path id="XMLID_255_" class="st1" d="M72.5,128.7l0-83.9c0-4.9-1.8-7.4-5.3-7.4c-1.2,0-1.9,0-2.2,0.1v-1.9c3-0.9,7.3-2.7,13.1-5.6
		l-0.1,10.4l1-1.5c3.9-5.8,9-8.7,15.1-8.7c4.5,0,8.2,2.2,11.3,6.5c3.1,4.4,4.7,10.2,4.7,17.4c0,7.2-1.7,13.5-5.2,19.1
		c-3.9,6.3-9,9.4-15.3,9.4c-4.3,0-8.1-1.9-11.6-5.7l0,51.9 M104.2,57.4c0-5-0.9-9.3-2.6-12.8C99,39.5,94.9,37,89.2,37
		c-2.1,0-4.4,0.8-6.8,2.4c-2.7,1.7-4.2,3.6-4.5,5.8v25.7c0,1.6,1.3,3.3,3.8,5.1c2.5,1.8,5.1,2.7,7.9,2.7
		C99.3,78.7,104.2,71.6,104.2,57.4z"/>
	<path id="XMLID_252_" class="st1" d="M137.7,81.8h-23.2v-1.7c3.5-0.1,5.9-0.8,7-2c1.4-1.5,2.1-4.4,2.1-8.8V45.5
		c0-5.2-1.7-7.8-5.2-7.8c-0.8,0-1.9,0.2-3.4,0.5v-1.8c3.2-1,8-2.9,14.1-5.7v38.6c0,3.9,0.6,6.7,1.7,8.2c1.1,1.5,3.3,2.4,6.8,2.6
		V81.8z M129.6,9.9c0,3.2-1.4,4.8-4.2,4.8c-1.3,0-2.3-0.6-3-1.7c-0.6-0.9-0.9-2-0.9-3c0-0.9,0.3-2,1-3c0.7-1,1.7-1.5,2.9-1.5
		c1.1,0,2.2,0.4,3,1.3C129.2,7.6,129.6,8.6,129.6,9.9z"/>
	<path id="XMLID_250_" class="st1" d="M167.3,74.6c-1,2.4-2.6,4.4-4.7,5.8c-2,1.5-4.2,2.2-6.4,2.2c-2.7,0-4.7-0.9-5.9-2.8
		c-1.4-2.2-2-5.9-2-11.1V33.8h-7c0-1.4,0-2.1,0.1-2.1c0.8-0.2,2.3-1.2,4.6-2.9c2.5-2.5,4.7-6.6,6.7-12.2h1.2v14.2h11.4v3h-11.4v32.6
		c0,4.3,0.3,7,0.8,8.3c0.9,1.9,2.6,2.8,5.3,2.7c2.6-0.1,4.6-1.2,6.1-3.5L167.3,74.6z"/>
	<path id="XMLID_247_" class="st1" d="M213,55.9c0,6.5-1.8,12.4-5.3,17.6c-4.1,6.1-9.6,9.1-16.3,9.1c-6.2,0-11.4-2.5-15.4-7.6
		c-4-5.1-6-11.4-6-19.1c0-7.2,1.9-13.4,5.7-18.4c4-5.2,9.1-7.8,15.3-7.8c6.6,0,11.9,2.3,15.9,7C211,41.5,213,47.9,213,55.9z
		 M207.1,59.1c0-7.5-1.6-13.7-4.8-18.7c-3.1-4.9-7.1-7.4-12.1-7.4c-3.7,0-6.9,1.3-9.5,4c-3,3.1-4.6,7.5-4.7,13.3
		c-0.1,7.3,1.1,13.7,3.8,19.2c3,6.6,7.4,9.8,13.1,9.8c3.5,0,6.4-1.2,8.9-3.7C205.4,72.2,207.1,66.7,207.1,59.1z"/>
	<path id="XMLID_245_" class="st1" d="M291.6,81.8h-20.5v-1.7c2.8-0.4,4.7-1,5.6-1.9c1.2-1.3,1.8-3.7,1.8-7.3V49.4
		c0-8.8-2.9-13.2-8.7-13.2c-5.1,0-9.3,2.5-12.6,7.4V70c0,4,0.9,6.8,2.6,8.3c1.2,1.1,3,1.7,5.5,1.7v1.7h-20.9v-1.7
		c2.6-0.2,4.4-0.8,5.6-1.7c1.4-1.4,2-3.8,2-7.4V48.8c0-8.4-2.8-12.6-8.4-12.6c-3,0-6.1,1.2-9.1,3.7c-2.6,2-3.9,3.4-3.9,4.2v29.1
		c0,4.3,2.6,6.6,7.8,6.9v1.7h-20.9v-1.7c2.6-0.1,4.4-0.6,5.6-1.5c1.6-1.4,2.3-3.8,2.3-7.4V45c0-5.6-1.7-8.4-5.1-8.4
		c-1,0-1.9,0.1-2.5,0.3V35c4.5-1.5,8.7-3,12.4-4.7h0.1v10c6.9-7,12.6-10.5,17-10.5c2.7,0,4.8,1,6.4,3c1.1,1.6,2.1,4,2.9,7.3
		C262.3,33.4,268,30,273.7,30c4.3,0,7.3,2.2,8.8,6.7c1,2.9,1.5,7.3,1.5,13.1v22.4c0,5.1,2.5,7.7,7.5,7.9V81.8z"/>
	<path id="XMLID_242_" class="st1" d="M333.4,64.6c-1.2,4-3.1,7.5-5.8,10.7c-4.1,4.9-9,7.4-14.7,7.4c-5.6,0-10.1-2.3-13.5-6.8
		c-3.3-4.4-5-10.5-5-18.4c0-9.3,2.4-16.5,7.1-21.6c3.8-4,8.1-6,13-6.1c4.6,0,8.4,1.5,11.3,4.4c3.4,3.3,5.3,8.3,5.9,14.9h-32.6
		c0.1,9.7,1.9,17.1,5.3,21.9c2.8,4.1,6.4,6.1,10.9,6.1c6.9,0,12.6-4.3,17-13L333.4,64.6z M324.5,46.2c-0.9-8.6-4.9-12.9-12-13
		c-6.2-0.1-10.6,4.3-13.1,13H324.5z"/>
</g>
</svg>
